PathFileType	4	(X/Y/Z)	OpenSim_Sub10_CSBaseline_Accel.trc
DataRate	CameraRate	NumFrames	NumMarkers	Units	OrigDataRate	OrigDataStartFrame	OrigNumFrames
100	100	31	8	m	100	1139	9111
Frame#	Time	torso_imu_offset_imu	pelvis_imu_offset_imu	tibia_r_imu_offset_imu	femur_r_imu_offset_imu	tibia_l_imu_offset_imu	femur_l_imu_offset_imu	toes_r_imu_offset_imu	toes_l_imu_offset_imu
				X1	Y1	Z1	X2	Y2	Z2	X3	Y3	Z3	X4	Y4	Z4	X5	Y5	Z5	X6	Y6	Z6	X7	Y7	Z7	X8		Y8	Z8	

1139	11.38000000	11.45269144	-0.14881045	6.61854331	10.14037589	0.21406591	4.41987037	7.70775592	14.68441642	-0.65908705	8.78951589	2.49849041	-0.06627576	13.07968783	0.89912015	2.68693615	10.88788783	1.28383039	-0.75601064	5.75384590	-0.23164767	8.58208774	9.52282667	0.63419569	10.78820203
1140	11.39000000	11.17782481	-0.23159033	6.60370818	10.21670059	0.13751557	4.60756230	7.85198470	13.70460447	1.36425519	8.59830052	3.81826964	-0.53881002	12.05202209	2.08403462	1.71825648	10.65297830	0.96684680	-0.51051887	5.74308181	0.09504580	8.80232821	11.80588974	0.90591586	12.41530676
1141	11.40000000	10.68654269	-0.33374396	6.55974686	10.28333718	0.30439126	4.84097250	9.01320500	10.10579791	-0.00422691	8.78615391	4.29110615	-1.04484159	11.37668798	3.41264015	1.16133304	10.00068760	0.58321423	0.06777239	5.45810591	0.47463389	8.98002101	8.32390834	5.97624907	14.55238804
1142	11.41000000	10.31231709	-0.39510249	6.33039461	10.10351508	0.76663792	5.06024100	10.80690514	6.87963287	-0.44719699	9.61869146	4.07847345	-1.42717020	11.22166450	2.39920314	1.75012398	10.17033703	-0.18755726	0.85645418	5.07167838	0.19920872	8.97851081	9.55697122	1.39815969	12.15596788
1143	11.42000000	9.70642264	-0.48653515	6.10333833	9.65403974	1.23370517	5.21231650	11.99598790	4.34277678	0.74296562	10.61068391	3.36178945	-1.63535742	10.59458500	-0.10791450	1.22351136	9.21655819	-0.24504055	0.79965832	4.94093078	0.27309368	9.20337984	9.91799579	0.68582164	11.25412574
1144	11.43000000	9.03086145	-0.48771976	6.03692050	9.05917303	1.68407890	5.17833963	11.92115522	1.68369602	0.50427699	11.11859513	2.24470330	-1.62708232	10.00356234	-2.84784285	0.54347219	8.57536258	-0.58202275	0.90644849	5.38360649	0.06766922	8.78593710	12.94544694	5.78816756	13.51732348
1145	11.44000000	8.36992012	-0.52078110	5.93502249	8.46567443	2.02938339	5.11634196	11.28816360	-0.63625535	0.04440346	10.96607469	0.72002914	-1.57430685	9.59662518	-5.49368619	0.16620077	7.97539103	-1.16227306	0.96461701	5.17936465	-0.05484414	8.78172911	17.94207412	1.55563808	13.14035309
1146	11.45000000	7.87426474	-0.63044933	5.80800899	7.87488820	2.25381710	5.00942720	10.53657525	-1.93598947	0.08037115	10.20527580	-0.93967226	-1.44145409	9.31414504	-7.97840004	-0.06908534	8.00939559	-1.50574272	0.80159588	5.07015850	-0.41629428	8.66515742	18.75152383	6.61962797	14.77285462
1147	11.46000000	7.51473960	-0.67549956	5.65361825	7.43784572	2.39102817	4.81391191	9.80564153	-2.41027540	0.12152842	9.31675425	-2.13781662	-1.22437841	9.04736194	-10.62667146	-0.98196208	8.60890956	-1.53120256	0.79608617	5.06554275	-0.27249435	8.76943255	13.43791185	7.77608681	13.18974527
1148	11.47000000	7.26096110	-0.79009704	5.61470436	7.10872819	2.41622928	4.63679127	9.59850683	-2.07557134	0.17293912	8.61858036	-3.04338786	-0.80469549	7.88574100	-13.07949516	-2.42836059	9.34541670	-1.44120769	0.75416404	5.14049632	-0.42478910	8.44671216	9.48834247	0.15101249	11.78490155
1149	11.48000000	7.14248493	-0.83134478	5.62756929	6.78627678	2.31529686	4.48775426	9.65594075	-1.02284607	-0.28581340	8.27774350	-3.47786277	-0.43760891	5.12114647	-13.36743897	-2.70851597	10.42280876	-1.44837933	1.06202912	4.92810205	-0.74872698	8.62144759	8.55669915	-2.70859524	20.06508599
1150	11.49000000	7.09369928	-1.05751832	5.51012529	6.88073617	2.06575669	4.47905203	9.68490574	0.74966892	-0.61947427	8.04327419	-3.45699169	-0.28775255	3.00961926	-11.82401564	-1.49013730	10.76417751	-0.40227412	1.58208774	5.03874783	-0.87120367	8.71574680	16.42619068	3.11296819	24.62011934
1151	11.50000000	7.18526718	-1.31517681	5.48358891	6.99809494	1.74352950	4.56256815	9.65594780	2.63140250	-0.78615801	7.86408936	-2.95216350	-0.25550573	2.14731920	-9.64608103	-0.37864043	12.18977353	0.01126353	1.87862327	4.61709012	-1.07344214	8.60577657	0.91221133	10.39510607	18.85566445
1152	11.51000000	7.44901634	-1.23807547	5.70754222	7.18253188	1.60573644	4.44171160	9.71162936	3.60888090	-0.77812911	7.72235313	-2.12740035	-0.23485263	2.10696994	-8.22890984	0.98810214	12.72308418	1.64043031	1.34963429	5.05540239	-0.92195071	8.50727018	0.24296717	7.70815990	16.50324894
1153	11.52000000	7.69293034	-1.07624973	5.84617368	7.57293900	1.50893078	4.23960184	9.63447350	3.20747102	-0.69540059	7.80793129	-1.16156965	-0.35942363	2.00446829	-7.66823272	2.20314656	12.50590543	2.73023964	0.66021049	5.09074608	-0.84331855	8.48765334	-1.04599291	1.91019238	14.06931438
1154	11.53000000	7.85958687	-0.77974838	6.00772100	7.92878791	1.44250707	3.97820545	9.61032655	2.02804993	-0.61815362	8.09616640	-0.20489399	-0.56795446	1.59060709	-7.08691291	2.50346636	11.38821423	3.26046892	0.36453536	5.09662192	-0.81516281	8.50103939	-0.97186026	-0.23132049	13.31996265
1155	11.54000000	8.04008098	-0.42340610	6.10943811	8.31115562	1.49359115	3.82172419	9.80920344	1.10027070	-0.40998000	8.51806855	0.78537918	-0.68961723	1.32717743	-6.06733052	2.56632817	10.26035834	3.23232705	0.21025429	4.94603607	-0.66201696	8.60825656	-1.99927132	0.87991002	12.83017555
1156	11.55000000	8.31793160	-0.27644726	6.08191970	8.52553355	1.64467303	3.68349898	10.10902963	0.34700349	-0.01837789	8.93785676	1.56867357	-0.66719499	1.56619448	-4.89684150	2.71849658	9.42991224	2.94695252	0.35911283	4.77473334	-0.76601007	8.74527014	-2.73704722	1.79969224	12.24179291
1157	11.56000000	8.52438980	-0.20200716	6.00743812	8.57262890	1.73249976	3.53742713	10.26175850	-0.14989205	-0.02625133	9.09509896	1.96968008	-0.56008455	2.03427432	-4.15842118	2.81502011	8.57110343	2.65077196	0.52676960	5.14227454	-0.62923258	8.46476411	-2.68618732	1.36089342	11.90592818
1158	11.57000000	8.38079212	-0.29215798	5.96015805	8.51308524	1.79871007	3.40500626	10.07247837	-0.22138132	0.09641291	9.05401327	1.97261672	-0.51878531	2.24330126	-4.13250352	2.79289587	8.26667626	2.54808181	0.82655339	4.86565495	-0.59922818	8.51729911	-2.01392408	0.49149946	11.89935834
1159	11.58000000	8.02473664	-0.33361262	6.06824891	8.34210887	1.74859400	3.23011046	9.58945261	-0.43240454	0.21336446	8.89875312	1.52735592	-0.42773455	2.27043438	-4.46866811	2.77192740	8.38658915	2.36270084	0.98818083	4.94984178	-0.61289180	8.56474582	-0.66087644	-0.08991916	12.22099116
1160	11.59000000	7.85455284	-0.31606932	6.02874036	8.22769124	1.70149778	3.17215043	9.41477184	-0.43301606	0.12360656	8.92958801	0.83708844	-0.47950826	2.37261078	-4.65357455	2.61020996	8.61900300	2.34112516	0.97618077	5.10301665	-0.79324753	8.43088732	-0.19893462	-0.28338228	12.44432541
1161	11.60000000	7.84365518	-0.41426737	6.17752968	8.19589825	1.54743356	3.04660278	9.45797181	-0.21627598	0.48507925	9.01337200	0.00969330	-0.52776095	2.80339708	-4.61737995	2.44447083	8.98049878	2.32736683	0.95620172	5.37991814	-0.73916023	8.26355795	-0.17360083	-0.86553105	12.20658778
1162	11.61000000	8.18433900	-0.41367802	6.21037803	8.17816443	1.45053320	3.01475444	9.61515063	0.07702528	0.62695796	8.95274993	-0.79450662	-0.33813599	3.28698162	-4.47201118	2.41253591	9.20726690	2.61854938	0.77096842	5.06904280	-0.39140059	8.56245339	-0.02449837	-1.35577390	12.09386924
1163	11.62000000	8.57239466	-0.39323766	6.31234495	8.24535901	1.32678209	3.00295508	9.77397837	0.10454975	0.27009363	8.74774226	-1.28444002	-0.10976945	3.59823651	-4.55501660	2.54987213	8.99844197	3.03414355	0.82626676	5.01738063	-0.51022568	8.49329584	0.88120657	-1.56134943	12.48391813
1164	11.63000000	8.41501428	-0.28611361	6.44066364	8.39240140	1.30631861	3.00188434	9.86739736	0.29295212	0.39617205	8.63877837	-1.41172278	0.04395238	3.88823810	-4.90850959	2.73484045	8.73791838	3.21403078	0.83742786	5.01883851	-0.33771523	8.62775702	2.30524750	-1.50707844	13.25002713
1165	11.64000000	8.17215510	-0.27048358	6.51896479	8.65575499	1.38410230	3.10044645	9.88519623	0.31700499	0.36956791	8.65716353	-1.29289257	0.14886567	4.38751769	-5.73674755	2.56419524	8.92701711	3.17227747	0.74713134	4.92543575	-0.31652952	8.69348848	3.84637769	-1.53866956	14.00606157
1166	11.65000000	7.92025478	-0.25367079	6.44837041	8.78993941	1.50732122	3.12820684	9.79158094	0.31233309	0.37493957	8.81300349	-0.99813478	0.24383888	4.77232530	-6.33301234	2.07670208	8.20163979	3.21177749	0.50019022	5.21984697	-0.17076700	8.55829959	5.04746300	-1.78505680	14.60433845
1167	11.66000000	7.90537011	-0.22752237	6.59188327	8.83499682	1.73526357	3.13134452	9.88559134	0.15836101	0.64996753	8.93055954	-0.73333301	0.18022953	5.84024826	-6.65166767	1.27581018	7.46402895	3.05710626	0.28925306	4.99846345	-0.23965819	8.67966478	5.78491259	-2.50742709	14.84556004
1168	11.67000000	8.19087874	-0.27115060	6.65112851	8.88425856	2.06268581	3.03030152	9.96857747	-0.43584646	0.34150066	9.06074858	-0.44262313	0.11431276	6.70820232	-6.52034106	1.03124375	8.14924930	3.07829447	0.28794832	4.94919396	-0.25559231	8.70294602	6.30018946	-2.90889083	14.94739544
1169	11.68000000	8.56480777	-0.30657582	6.72081448	8.94756725	2.37439334	2.91333962	10.07725162	-0.89904612	0.14401658	9.08293023	-0.12663966	-0.14659577	7.05373049	-6.11166396	1.80675330	7.20550504	3.21505875	0.14038749	4.74262990	-0.29827902	8.76877654	6.85693528	-2.70645201	15.00985446
